<svg xmlns="http://www.w3.org/2000/svg" width="22" height="22" viewBox="0 0 22 22">
  <path id="Path_18" data-name="Path 18" d="M-14793,22a10.926,10.926,0,0,1-7.778-3.222A10.934,10.934,0,0,1-14804,11a10.929,10.929,0,0,1,3.221-7.777A10.928,10.928,0,0,1-14793,0a10.93,10.93,0,0,1,7.778,3.222A10.925,10.925,0,0,1-14782,11a10.929,10.929,0,0,1-3.223,7.779A10.926,10.926,0,0,1-14793,22Zm-4.017-11.688-.016,1.368h5.433l-1.646,1.651.964.97,3.316-3.332-3.257-3.269-.953.956,1.648,1.656h-5.49Z" transform="translate(14803.999)" fill="#d0e9ec"/>
</svg>
