<svg xmlns="http://www.w3.org/2000/svg" width="22" height="22.005" viewBox="0 0 22 22.005">
  <g id="Google__G__Logo" transform="translate(26.753 -39.238)">
    <rect id="Rectangle_2" data-name="Rectangle 2" width="22" height="22" transform="translate(-26.753 39.243)" fill="none"/>
    <path id="Path_627" data-name="Path 627" d="M-4.213,51.321a12.754,12.754,0,0,0-.174-2.082H-14.754v4.137h5.935a5.111,5.111,0,0,1-2.2,3.284v2.752h3.541a10.763,10.763,0,0,0,3.265-8.091Z" transform="translate(-1.008 -0.843)" fill="#4285f4"/>
    <path id="Path_628" data-name="Path 628" d="M-15.639,62.437a10.486,10.486,0,0,0,7.275-2.67l-3.541-2.752a6.641,6.641,0,0,1-3.734,1.064,6.574,6.574,0,0,1-6.174-4.55h-3.651v2.835a10.992,10.992,0,0,0,9.825,6.073Z" transform="translate(-0.107 -1.198)" fill="#34a853"/>
    <path id="Path_629" data-name="Path 629" d="M-21.919,52.9a6.388,6.388,0,0,1-.349-2.1,6.637,6.637,0,0,1,.349-2.1V45.859H-25.57a10.881,10.881,0,0,0-1.183,4.935A10.882,10.882,0,0,0-25.57,55.73Z" transform="translate(0 -0.555)" fill="#fbbc05"/>
    <path id="Path_630" data-name="Path 630" d="M-15.648,43.6a5.964,5.964,0,0,1,4.216,1.651L-8.3,42.11a10.509,10.509,0,0,0-7.35-2.871,10.98,10.98,0,0,0-9.816,6.073l3.648,2.835a6.569,6.569,0,0,1,6.17-4.547Z" transform="translate(-0.107)" fill="#ea4335"/>
  </g>
</svg>
