<svg xmlns="http://www.w3.org/2000/svg" width="16" height="15.999" viewBox="0 0 16 15.999">
  <path id="Path_25" data-name="Path 25" d="M5818,1191a8,8,0,1,1,8-8.01A8.016,8.016,0,0,1,5818,1191Zm-2.769-8.944a1.31,1.31,0,0,0-.913.365,1.267,1.267,0,0,0-.019,1.806l1.756,1.813a1.226,1.226,0,0,0,.9.394,1.289,1.289,0,0,0,.922-.38l3.694-3.773a1.3,1.3,0,0,0,.366-.906,1.27,1.27,0,0,0-.384-.9,1.251,1.251,0,0,0-.872-.359h-.028a1.293,1.293,0,0,0-.906.373l-2.775,2.839-.844-.878a1.3,1.3,0,0,0-.9-.393Z" transform="translate(-5810 -1175)" fill="#3494a4"/>
</svg>
