<svg xmlns="http://www.w3.org/2000/svg" width="50" height="34" viewBox="0 0 50 34">
  <path id="quote" d="M-13077.99,1962.583c6.614-5.7,8.848-11.611,2.881-10.831a11,11,0,0,1-11.11-10.876,10.994,10.994,0,0,1,11.11-10.874,11,11,0,0,1,11.113,10.874c0,6.777-3.585,18.466-13.274,23.029a.925.925,0,0,1-.4.1C-13078.327,1964-13078.632,1963.134-13077.99,1962.583Zm-27.777,0c6.615-5.7,8.847-11.611,2.88-10.831a11,11,0,0,1-11.108-10.876,11,11,0,0,1,11.108-10.874,10.994,10.994,0,0,1,11.112,10.874c0,6.777-3.582,18.466-13.272,23.029a.953.953,0,0,1-.4.1C-13106.1,1964-13106.405,1963.134-13105.768,1962.583Z" transform="translate(13113.996 -1930.001)" fill="#3494a4"/>
</svg>
