<svg xmlns="http://www.w3.org/2000/svg" width="24" height="24" viewBox="0 0 24 24">
  <path id="Path_3971" data-name="Path 3971" d="M11875.59-680.913l-5.79-5.79a9.839,9.839,0,0,1-5.917,1.967,9.882,9.882,0,0,1-9.883-9.881,9.883,9.883,0,0,1,9.883-9.883,9.883,9.883,0,0,1,9.883,9.883,9.837,9.837,0,0,1-1.968,5.917l5.79,5.789a1.416,1.416,0,0,1,0,2,1.41,1.41,0,0,1-1,.413A1.412,1.412,0,0,1,11875.59-680.913Zm-18.766-13.7a7.058,7.058,0,0,0,7.059,7.058,7.059,7.059,0,0,0,7.06-7.058,7.06,7.06,0,0,0-7.06-7.06A7.059,7.059,0,0,0,11856.824-694.617Z" transform="translate(-11854 704.5)" fill="#131313"/>
</svg>
